<?xml version="1.0" encoding="UTF-8" standalone="no"?>
<svg width="110px" height="96px" viewBox="0 0 110 96" version="1.1" xmlns="http://www.w3.org/2000/svg" xmlns:xlink="http://www.w3.org/1999/xlink" xmlns:sketch="http://www.bohemiancoding.com/sketch/ns">
    <!-- Generator: Sketch 3.3.2 (12043) - http://www.bohemiancoding.com/sketch -->
    <title>Rectangle 1 + Shape</title>
    <desc>Created with Sketch.</desc>
    <defs></defs>
    <g id="Page-1" stroke="none" stroke-width="1" fill="none" fill-rule="evenodd" sketch:type="MSPage">
        <g id="Rectangle-1-+-Shape" sketch:type="MSLayerGroup" transform="translate(-17.000000, 0.000000)">
            <rect id="Rectangle-1" sketch:type="MSShapeGroup" x="0" y="0" width="144" height="96"></rect>
            <path d="M71.7695621,0.0124615129 C71.3090803,0.0659297778 70.8813342,0.274346892 70.5550687,0.603885994 L18.0317736,53.1282723 C17.2373879,53.9292051 17.2450262,55.2233553 18.0470502,56.0166498 C18.4278752,56.39311 18.9407341,56.6048007 19.4765079,56.6069831 L30.5717185,56.6069831 L30.5717185,93.9649324 C30.574992,95.0866747 31.4839525,95.9956352 32.6067861,96 L46.427787,96 L65.4341183,96 L78.5665789,96 L98.0650365,96 L111.393911,96 C112.515653,95.9956352 113.424614,95.0866747 113.428979,93.9649324 L113.428979,56.6080743 L124.524189,56.6080743 C125.652479,56.6037095 126.563622,55.6860195 126.559257,54.55773 C126.557075,54.0219561 126.345384,53.5090973 125.968924,53.1282723 L113.166002,40.3253508 L113.166002,22.7953983 C113.162729,21.6736559 112.252677,20.7646954 111.130935,20.7603307 L102.464711,20.7603307 C101.342969,20.7646954 100.434008,21.6736559 100.429643,22.7953983 L100.429643,27.5879007 L73.4445374,0.603885994 C73.0058793,0.161954417 72.3882663,-0.056283399 71.7695621,0.0124615129 L71.7695621,0.0124615129 Z" id="Shape" fill="#000000" sketch:type="MSShapeGroup"></path>
        </g>
    </g>
</svg>