<?xml version="1.0" encoding="UTF-8" standalone="no"?>
<svg width="143px" height="94px" viewBox="0 0 143 94" version="1.1" xmlns="http://www.w3.org/2000/svg" xmlns:xlink="http://www.w3.org/1999/xlink" xmlns:sketch="http://www.bohemiancoding.com/sketch/ns">
    <!-- Generator: Sketch 3.3.2 (12043) - http://www.bohemiancoding.com/sketch -->
    <title>work-nav</title>
    <desc>Created with Sketch.</desc>
    <defs></defs>
    <g id="Page-1" stroke="none" stroke-width="1" fill="none" fill-rule="evenodd" sketch:type="MSPage">
        <g id="work-nav" sketch:type="MSLayerGroup" transform="translate(-1.000000, -1.000000)">
            <g id="Page-1" sketch:type="MSShapeGroup">
                <g>
                    <g id="Rectangle-1-+-work-nav">
                        <rect id="Rectangle-1" x="0.789993" y="0.104655" width="143.210007" height="95"></rect>
                        <g id="work-nav" transform="translate(1.000000, 0.104655)" fill="#000000">
                            <path d="M120.846193,0.901797666 L21.5988226,0.901797666 C19.2464919,0.901797666 17.3436421,2.80464746 17.3436421,5.15697816 L17.3436421,6.57206318 L17.3436421,64.7110721 C17.3436421,67.0577312 19.2464919,68.9662526 21.5988226,68.9662526 L23.0181614,68.9662526 L119.441034,68.9662526 L120.844775,68.9662526 C123.191434,68.9662526 125.099956,67.0577312 125.099956,64.7110721 L125.099956,6.57206318 L125.099956,5.15697816 C125.101374,2.80464746 123.202778,0.901797666 120.846193,0.901797666 L120.846193,0.901797666 L120.846193,0.901797666 Z M119.441034,63.2846438 L23.0181614,63.2846438 L23.0181614,6.57206318 L119.441034,6.57206318 L119.441034,63.2846438 L119.441034,63.2846438 Z" id="Shape"></path>
                            <path d="M125.253091,71.8176915 C124.398085,71.0279096 122.732028,70.3799197 121.567915,70.3799197 L20.8856085,70.3799197 C19.7172417,70.3799197 18.0611101,71.0279096 17.2061038,71.8176915 L0.32859184,87.3892984 L0.32859184,90.2293938 C0.32859184,90.2293938 0.32859184,94.4845743 4.58377234,94.4845743 L137.865497,94.4845743 C142.120678,94.4845743 142.120678,90.2293938 142.120678,90.2293938 L142.120678,87.3892984 L125.253091,71.8176915 L125.253091,71.8176915 Z M52.5945726,80.8314144 L89.853279,80.8314144 L92.7259867,85.4595081 L49.720447,85.4595081 L52.5945726,80.8314144 L52.5945726,80.8314144 Z M81.1472449,88.8157267 C81.1472449,89.5941653 80.5105985,90.2293938 79.7321599,90.2293938 L62.7171096,90.2293938 C61.9329994,90.2293938 61.3020246,89.5941653 61.3020246,88.8157267 L61.3020246,87.3892984 L81.145827,87.3892984 L81.145827,88.8157267 L81.1472449,88.8157267 L81.1472449,88.8157267 Z" id="Shape"></path>
                        </g>
                    </g>
                </g>
            </g>
        </g>
    </g>
</svg>